<svg id="Layer_2" data-name="Layer 2" xmlns="http://www.w3.org/2000/svg" width="31.249" height="26.841" viewBox="0 0 31.249 26.841">
  <defs>
    <style>
      .cls-1 {
        fill: #707070;
      }
    </style>
  </defs>
  <g id="Layer_1" data-name="Layer 1">
    <path id="Path_6" data-name="Path 6" class="cls-1" d="M27.342,0H3.906A3.662,3.662,0,0,0,0,3.355V25.721A1.127,1.127,0,0,0,.757,26.74a1.532,1.532,0,0,0,.547.1,1.437,1.437,0,0,0,.845-.268L9.8,20.94a4.3,4.3,0,0,1,2.544-.809h15a3.662,3.662,0,0,0,3.906-3.355V3.355A3.662,3.662,0,0,0,27.342,0Zm1.3,16.776a1.227,1.227,0,0,1-1.3,1.12h-15a7.188,7.188,0,0,0-4.238,1.346L2.6,23.293V3.355a1.227,1.227,0,0,1,1.3-1.12H27.342a1.227,1.227,0,0,1,1.3,1.12Z"/>
    <path id="Path_7" data-name="Path 7" class="cls-1" d="M29.672,15.688H17.166a1.229,1.229,0,0,0-1.148.652,1.452,1.452,0,0,0,0,1.4,1.229,1.229,0,0,0,1.148.652H29.672a1.229,1.229,0,0,0,1.148-.652,1.452,1.452,0,0,0,0-1.4,1.229,1.229,0,0,0-1.148-.652Z" transform="translate(-7.795 -9.233)"/>
    <path id="Path_8" data-name="Path 8" class="cls-1" d="M29.672,26.358H17.166a1.229,1.229,0,0,0-1.148.652,1.452,1.452,0,0,0,0,1.4,1.229,1.229,0,0,0,1.148.652H29.672a1.229,1.229,0,0,0,1.148-.652,1.452,1.452,0,0,0,0-1.4,1.229,1.229,0,0,0-1.148-.652Z" transform="translate(-7.795 -15.514)"/>
  </g>
</svg>
