<svg xmlns="http://www.w3.org/2000/svg" width="29.78" height="26.802" viewBox="0 0 29.78 26.802">
  <defs>
    <style>
      .cls-1 {
        fill: none;
        stroke-miterlimit: 10;
      }

      .cls-2, .cls-3 {
        stroke: none;
      }

      .cls-3 {
        fill: #707070;
      }
    </style>
  </defs>
  <g id="_Color" data-name=" ↳Color" class="cls-1">
    <path class="cls-2" d="M14.89,26.8l-2.159-1.928C5.063,18.053,0,13.555,0,8.033A8.034,8.034,0,0,1,8.19,0a8.989,8.989,0,0,1,6.7,3.053A8.989,8.989,0,0,1,21.591,0a8.034,8.034,0,0,1,8.19,8.033c0,5.521-5.063,10.02-12.731,16.856Z"/>
    <path class="cls-3" d="M 14.89527893066406 24.12555694580078 L 15.77730941772461 23.34358596801758 C 19.46603012084961 20.05545616149902 22.65172004699707 17.21572685241699 24.76992034912109 14.66886615753174 C 26.85195922851562 12.16547679901123 27.78043937683105 10.11903667449951 27.78043937683105 8.033416748046875 C 27.78043937683105 6.399146556854248 27.14987945556641 4.880576610565186 26.00491905212402 3.757456541061401 C 24.84956932067871 2.624136447906494 23.28194999694824 1.999996423721313 21.5908203125 1.999996423721313 C 19.62575912475586 1.999996423721313 17.68545913696289 2.883666515350342 16.40050888061523 4.363806247711182 L 14.89021968841553 6.103536605834961 L 13.3799295425415 4.363806247711182 C 12.09497928619385 2.883666515350342 10.15467929840088 1.999996423721313 8.189620018005371 1.999996423721313 C 6.498489856719971 1.999996423721313 4.930869579315186 2.624136447906494 3.775519609451294 3.757456541061401 C 2.630559682846069 4.880576610565186 1.999999642372131 6.399146556854248 1.999999642372131 8.033416748046875 C 1.999999642372131 10.12271690368652 2.93166971206665 12.17242622375488 5.020859718322754 14.67946624755859 C 7.146069526672363 17.22972679138184 10.34147930145264 20.07205581665039 14.04146003723145 23.36318588256836 L 14.89527893066406 24.12555694580078 M 14.89021968841553 26.80239677429199 L 12.73114013671875 24.87437629699707 C 5.062679767608643 18.05327606201172 -3.115844720014138e-07 13.55456638336182 -3.115844720014138e-07 8.033416748046875 C -3.115844720014138e-07 3.534706592559814 3.603429794311523 -3.52020265381725e-06 8.189620018005371 -3.52020265381725e-06 C 10.78051948547363 -3.52020265381725e-06 13.26718997955322 1.183106422424316 14.89021968841553 3.052696466445923 C 16.51325035095215 1.183106422424316 18.99991989135742 -3.52020265381725e-06 21.5908203125 -3.52020265381725e-06 C 26.17700958251953 -3.52020265381725e-06 29.78043937683105 3.534706592559814 29.78043937683105 8.033416748046875 C 29.78043937683105 13.55456638336182 24.71776008605957 18.05327606201172 17.0492992401123 24.88898658752441 L 14.89021968841553 26.80239677429199 Z"/>
  </g>
</svg>
