<svg xmlns="http://www.w3.org/2000/svg" width="19.081" height="23.5" viewBox="0 0 19.081 23.5">
  <defs>
    <style>
      .cls-1 {
        fill: none;
        stroke-miterlimit: 10;
      }

      .cls-2, .cls-3 {
        stroke: none;
      }

      .cls-3 {
        fill: #707070;
      }
    </style>
  </defs>
  <g id="_Color" data-name=" ↳Color" class="cls-1">
    <path class="cls-2" d="M16.355,0H2.726A2.678,2.678,0,0,0,0,2.611V23.5l9.54-3.917,9.54,3.917V2.611A2.678,2.678,0,0,0,16.355,0Z"/>
    <path class="cls-3" d="M 2.725793838500977 2 C 2.332372665405273 2 2.000003814697266 2.279850006103516 2.000003814697266 2.611110687255859 L 2.000003814697266 20.51693916320801 L 9.540283203125 17.42135047912598 L 17.08056259155273 20.51693916320801 L 17.08056259155273 2.611110687255859 C 17.08056259155273 2.279850006103516 16.74819374084473 2 16.35477256774902 2 L 2.725793838500977 2 M 2.725793838500977 0 L 16.35477256774902 0 C 17.85396385192871 0 19.08056259155273 1.174999237060547 19.08056259155273 2.611110687255859 L 19.08056259155273 23.5 L 9.540283203125 19.58333015441895 L 3.814697265625e-06 23.5 L 3.814697265625e-06 2.611110687255859 C 3.814697265625e-06 1.174999237060547 1.226602554321289 0 2.725793838500977 0 Z"/>
  </g>
</svg>
